<?xml version="1.0" encoding="utf-8"?>
<!-- Generator: Adobe Illustrator 19.0.1, SVG Export Plug-In . SVG Version: 6.00 Build 0)  -->
<svg version="1.1" id="Layer_1" xmlns="http://www.w3.org/2000/svg" xmlns:xlink="http://www.w3.org/1999/xlink" x="0px" y="0px"
	 viewBox="0 0 745.3 263" style="enable-background:new 0 0 745.3 263;" xml:space="preserve">
<style type="text/css">
	.st0{fill:url(#SVGID_1_);}
	.st1{fill:none;stroke:#F7AC8F;stroke-miterlimit:10;}
	.st2{fill:none;stroke:#FFFFFF;stroke-miterlimit:10;}
	.st3{fill:#FFFFFF;}
	.st4{fill:url(#SVGID_2_);}
	.st5{fill:url(#SVGID_3_);}
	.st6{fill:url(#SVGID_4_);}
	.st7{fill:#F27F55;}
	.st8{fill:url(#SVGID_5_);}
</style>
<linearGradient id="SVGID_1_" gradientUnits="userSpaceOnUse" x1="36.0478" y1="124.9949" x2="692.1985" y2="124.9949">
	<stop  offset="6.995376e-03" style="stop-color:#F7AC8F;stop-opacity:0.1"/>
	<stop  offset="0.5877" style="stop-color:#F7AC8F"/>
	<stop  offset="1" style="stop-color:#F27F55"/>
</linearGradient>
<rect x="36" y="27.1" class="st0" width="656.2" height="195.8"/>
<line class="st1" x1="64.2" y1="228.2" x2="64.2" y2="235.6"/>
<line class="st1" x1="100.6" y1="228.2" x2="100.6" y2="235.6"/>
<line class="st1" x1="138.7" y1="228.2" x2="138.7" y2="235.6"/>
<line class="st1" x1="175.9" y1="228.2" x2="175.9" y2="235.6"/>
<line class="st1" x1="220.3" y1="228.2" x2="220.3" y2="235.6"/>
<line class="st1" x1="259.1" y1="228.2" x2="259.1" y2="235.6"/>
<line class="st1" x1="302.7" y1="228.2" x2="302.7" y2="235.7"/>
<line class="st1" x1="27.5" y1="41.9" x2="19" y2="41.9"/>
<line class="st1" x1="27.5" y1="73.9" x2="19" y2="73.9"/>
<line class="st1" x1="27.5" y1="105.2" x2="19" y2="105.2"/>
<line class="st1" x1="27.5" y1="142.6" x2="19" y2="142.6"/>
<line class="st1" x1="27.5" y1="175.2" x2="19" y2="175.2"/>
<line class="st1" x1="27.5" y1="211.9" x2="18.9" y2="211.9"/>
<line class="st1" x1="345.1" y1="228.2" x2="345.1" y2="235.7"/>
<line class="st1" x1="387.5" y1="228.2" x2="387.5" y2="235.7"/>
<line class="st1" x1="424.7" y1="228.2" x2="424.7" y2="235.7"/>
<line class="st1" x1="468.3" y1="228.2" x2="468.3" y2="235.4"/>
<line class="st1" x1="508" y1="228.2" x2="508" y2="235.4"/>
<line class="st1" x1="549.2" y1="228.2" x2="549.2" y2="235.4"/>
<line class="st1" x1="592" y1="228.2" x2="592" y2="235.9"/>
<line class="st1" x1="641.1" y1="228.2" x2="641.1" y2="235.9"/>
<line class="st1" x1="676" y1="228.2" x2="676" y2="235.9"/>
<polyline class="st2" points="36,222.9 64.2,191.6 100.6,188.6 135.2,162.2 175.9,174.2 220.3,202.2 259.1,140.2 302.7,162.2 
	341.7,97.1 387.5,123.1 424.7,171.7 468.3,88.9 508,119.6 549.2,41.6 592,162.2 641.1,100.9 676,189.7 "/>
<circle class="st3" cx="64.2" cy="192.1" r="3.5"/>
<circle class="st3" cx="100.6" cy="188.6" r="3.5"/>
<circle class="st3" cx="135.2" cy="162.2" r="3.5"/>
<circle class="st3" cx="175.9" cy="174.2" r="3.5"/>
<circle class="st3" cx="220.3" cy="202.2" r="3.5"/>
<circle class="st3" cx="259.1" cy="140.2" r="3.5"/>
<circle class="st3" cx="302.7" cy="162.2" r="3.5"/>
<circle class="st3" cx="341.7" cy="97.1" r="3.5"/>
<circle class="st3" cx="387.5" cy="123.1" r="3.5"/>
<circle class="st3" cx="424.7" cy="171.7" r="3.5"/>
<circle class="st3" cx="467.7" cy="88.8" r="3.5"/>
<circle class="st3" cx="508" cy="119.6" r="3.5"/>
<circle class="st3" cx="549.2" cy="41.6" r="3.5"/>
<circle class="st3" cx="641.7" cy="100.8" r="3.5"/>
<circle class="st3" cx="592" cy="162.2" r="3.5"/>
<circle class="st3" cx="676" cy="189.7" r="3.5"/>
</svg>
