<?xml version="1.0" encoding="utf-8"?>
<!-- Generator: Adobe Illustrator 19.0.1, SVG Export Plug-In . SVG Version: 6.00 Build 0)  -->
<svg version="1.1" id="Layer_1" xmlns="http://www.w3.org/2000/svg" xmlns:xlink="http://www.w3.org/1999/xlink" x="0px" y="0px"
	 viewBox="0 0 850.9 263" style="enable-background:new 0 0 850.9 263;" xml:space="preserve">
<style type="text/css">
	.st0{fill:url(#SVGID_1_);}
	.st1{fill:none;stroke:#F7AC8F;stroke-miterlimit:10;}
	.st2{fill:none;stroke:#FFFFFF;stroke-miterlimit:10;}
	.st3{fill:#FFFFFF;}
	.st4{fill:url(#SVGID_2_);}
	.st5{fill:url(#SVGID_3_);}
	.st6{fill:url(#SVGID_4_);}
	.st7{fill:#F27F55;}
	.st8{font-family:'MyriadPro-Regular';}
	.st9{font-size:7px;}
	.st10{fill:url(#SVGID_5_);}
	.st11{font-size:8px;}
</style>
<linearGradient id="SVGID_1_" gradientUnits="userSpaceOnUse" x1="33.6118" y1="124.8996" x2="361.6872" y2="124.8996">
	<stop  offset="6.995376e-03" style="stop-color:#F7AC8F;stop-opacity:0.1"/>
	<stop  offset="0.5877" style="stop-color:#F7AC8F"/>
	<stop  offset="1" style="stop-color:#F27F55"/>
</linearGradient>
<rect x="33.6" y="27" class="st0" width="328.1" height="195.8"/>
<rect x="54.3" y="131.2" class="st3" width="18.9" height="91.6"/>
<rect x="92.1" y="113.3" class="st3" width="18.9" height="109.5"/>
<rect x="122.2" y="206.4" class="st3" width="18.9" height="16.4"/>
<rect x="161.1" y="153.2" class="st3" width="18.9" height="69.6"/>
<rect x="249.7" y="131.2" class="st3" width="18.9" height="91.6"/>
<rect x="287.5" y="113.3" class="st3" width="18.9" height="109.5"/>
<rect x="325.3" y="153.2" class="st3" width="18.9" height="69.6"/>
<text transform="matrix(1 0 0 1 42.325 232.5667)" class="st7 st8 st9">Photography</text>
<text transform="matrix(1 0 0 1 248.2033 232.5667)" class="st7 st8 st9">Painting</text>
<text transform="matrix(1 0 0 1 92.0516 232.5666)" class="st7 st8 st9">Sketch</text>
<text transform="matrix(1 0 0 1 159.1585 232.5666)" class="st7 st8 st9">Collage</text>
<text transform="matrix(1 0 0 1 202.1585 232.5666)"><tspan x="0" y="0" class="st7 st8 st9">Graphic</tspan><tspan x="0" y="8.4" class="st7 st8 st9">Design</tspan></text>
<text transform="matrix(1 0 0 1 282.1139 232.5667)" class="st7 st8 st9">Sculpture</text>
<text transform="matrix(1 0 0 1 319.1139 232.5667)" class="st7 st8 st9">Stitch Work</text>
<text transform="matrix(1 0 0 1 125.1585 234.8997)" class="st7 st8 st9">Print</text>
<rect x="207.2" y="217.6" class="st3" width="18.9" height="5.2"/>
<line class="st1" x1="27.7" y1="31.4" x2="19.2" y2="31.4"/>
<line class="st1" x1="431.5" y1="122.8" x2="426.4" y2="122.8"/>
<line class="st1" x1="431.5" y1="73.3" x2="426.4" y2="73.3"/>
<line class="st1" x1="428.9" y1="33.4" x2="423.8" y2="33.4"/>
<line class="st1" x1="27.7" y1="218.2" x2="19.2" y2="218.2"/>
<line class="st1" x1="27.7" y1="178.4" x2="19.2" y2="178.4"/>
<line class="st1" x1="27.7" y1="113.9" x2="19.1" y2="113.9"/>
<line class="st1" x1="27.7" y1="134.9" x2="19.1" y2="134.9"/>
<line class="st1" x1="27.7" y1="94.4" x2="19.1" y2="94.4"/>
<line class="st1" x1="27.7" y1="50.9" x2="19.1" y2="50.9"/>
<line class="st1" x1="27.7" y1="155.9" x2="19.1" y2="155.9"/>
<line class="st1" x1="27.7" y1="73.4" x2="19.1" y2="73.4"/>
<line class="st1" x1="27.7" y1="199.4" x2="19.1" y2="199.4"/>
<linearGradient id="SVGID_2_" gradientUnits="userSpaceOnUse" x1="434.9707" y1="125.4565" x2="763.0461" y2="125.4565" gradientTransform="matrix(-1 0 0 1 1198.0168 0)">
	<stop  offset="6.995376e-03" style="stop-color:#F7AC8F;stop-opacity:0.1"/>
	<stop  offset="0.5877" style="stop-color:#F7AC8F"/>
	<stop  offset="1" style="stop-color:#F27F55"/>
</linearGradient>
<rect x="435" y="27.6" class="st4" width="328.1" height="195.8"/>
<rect x="455.7" y="177.6" class="st3" width="18.9" height="45.8"/>
<rect x="493.4" y="69.4" class="st3" width="18.9" height="153.9"/>
<rect x="523.6" y="179" class="st3" width="18.9" height="44.4"/>
<rect x="562.4" y="118.8" class="st3" width="18.9" height="104.5"/>
<rect x="651.1" y="153.2" class="st3" width="18.9" height="70.1"/>
<rect x="688.8" y="60.1" class="st3" width="18.9" height="163.3"/>
<rect x="726.7" y="88.8" class="st3" width="18.9" height="134.6"/>
<text transform="matrix(1 0 0 1 443.684 233.1235)" class="st7 st8 st9">Photography</text>
<text transform="matrix(1 0 0 1 649.5622 233.1235)" class="st7 st8 st9">Painting</text>
<text transform="matrix(1 0 0 1 493.4105 233.1235)" class="st7 st8 st9">Sketch</text>
<text transform="matrix(1 0 0 1 560.5175 233.1235)" class="st7 st8 st9">Collage</text>
<text transform="matrix(1 0 0 1 603.5175 233.1235)"><tspan x="0" y="0" class="st7 st8 st9">Graphic</tspan><tspan x="0" y="8.4" class="st7 st8 st9">Design</tspan></text>
<text transform="matrix(1 0 0 1 683.4728 233.1235)" class="st7 st8 st9">Sculpture</text>
<text transform="matrix(1 0 0 1 720.4728 233.1235)" class="st7 st8 st9">Stitch Work</text>
<text transform="matrix(1 0 0 1 526.5175 235.4565)" class="st7 st8 st9">Print</text>
<rect x="608.6" y="194.5" class="st3" width="18.9" height="28.3"/>
<text transform="matrix(1 0 0 1 404.5108 75.297)" class="st7 st8 st11">Proud</text>
<text transform="matrix(1 0 0 1 384.7396 35.4169)" class="st7 st8 st11">Very Proud</text>
<text transform="matrix(1 0 0 1 399.7393 125.5097)" class="st7 st8 st11">Alright</text>
<text transform="matrix(1 0 0 1 388.7393 220.1893)" class="st7 st8 st11">This sucks</text>
<text transform="matrix(1 0 0 1 409.8717 173.3998)" class="st7 st8 st11">Ehh</text>
<line class="st1" x1="431.5" y1="171.6" x2="426.4" y2="171.6"/>
<line class="st1" x1="428.9" y1="217.8" x2="423.8" y2="217.8"/>
</svg>
