<?xml version="1.0" encoding="utf-8"?>
<!-- Generator: Adobe Illustrator 19.0.1, SVG Export Plug-In . SVG Version: 6.00 Build 0)  -->
<svg version="1.1" id="Layer_1" xmlns="http://www.w3.org/2000/svg" xmlns:xlink="http://www.w3.org/1999/xlink" x="0px" y="0px"
	 viewBox="0 0 745.3 263" style="enable-background:new 0 0 745.3 263;" xml:space="preserve">
<style type="text/css">
	.st0{fill:url(#SVGID_1_);}
	.st1{fill:none;stroke:#F7AC8F;stroke-miterlimit:10;}
	.st2{fill:none;stroke:#FFFFFF;stroke-miterlimit:10;}
	.st3{fill:#FFFFFF;}
	.st4{fill:url(#SVGID_2_);}
	.st5{fill:url(#SVGID_3_);}
</style>
<linearGradient id="SVGID_1_" gradientUnits="userSpaceOnUse" x1="46.4092" y1="137.4249" x2="702.56" y2="137.4249">
	<stop  offset="6.995376e-03" style="stop-color:#F7AC8F;stop-opacity:0.1"/>
	<stop  offset="0.5877" style="stop-color:#F7AC8F"/>
	<stop  offset="1" style="stop-color:#F27F55"/>
</linearGradient>
<rect x="46.4" y="39.5" class="st0" width="656.2" height="195.8"/>
<line class="st1" x1="74.5" y1="240.6" x2="74.5" y2="248.1"/>
<line class="st1" x1="111" y1="240.6" x2="111" y2="248.1"/>
<line class="st1" x1="149" y1="240.6" x2="149" y2="248.1"/>
<line class="st1" x1="186.3" y1="240.6" x2="186.3" y2="248.1"/>
<line class="st1" x1="230.7" y1="240.6" x2="230.7" y2="248.1"/>
<line class="st1" x1="269.5" y1="240.6" x2="269.5" y2="248.1"/>
<line class="st1" x1="313.1" y1="240.6" x2="313.1" y2="248.2"/>
<line class="st1" x1="37.9" y1="54.3" x2="29.3" y2="54.3"/>
<line class="st1" x1="37.9" y1="86.3" x2="29.3" y2="86.3"/>
<line class="st1" x1="37.9" y1="117.7" x2="29.3" y2="117.7"/>
<line class="st1" x1="37.9" y1="155" x2="29.3" y2="155"/>
<line class="st1" x1="37.9" y1="187.7" x2="29.3" y2="187.7"/>
<line class="st1" x1="37.9" y1="224.3" x2="29.2" y2="224.3"/>
<line class="st1" x1="355.5" y1="240.6" x2="355.5" y2="248.2"/>
<line class="st1" x1="397.9" y1="240.6" x2="397.9" y2="248.2"/>
<line class="st1" x1="435.1" y1="240.6" x2="435.1" y2="248.2"/>
<line class="st1" x1="478.7" y1="240.6" x2="478.7" y2="247.9"/>
<line class="st1" x1="518.3" y1="240.6" x2="518.3" y2="247.9"/>
<line class="st1" x1="559.5" y1="240.6" x2="559.5" y2="247.9"/>
<line class="st1" x1="602.3" y1="240.6" x2="602.3" y2="248.3"/>
<line class="st1" x1="651.4" y1="240.6" x2="651.4" y2="248.3"/>
<line class="st1" x1="686.3" y1="240.6" x2="686.3" y2="248.3"/>
<polyline class="st2" points="46.4,235.3 74.5,204 111,186.7 149,212 186.3,140 230.7,93.3 269.5,152.7 313.1,174.7 355.5,136 
	397.9,113.3 430.4,74 478.7,101.3 518.3,132 559.5,54 602.3,78 651.4,113.3 686.3,74 "/>
<circle class="st3" cx="74.5" cy="204.5" r="3.5"/>
<circle class="st3" cx="111" cy="186.7" r="3.5"/>
<circle class="st3" cx="149" cy="212" r="3.5"/>
<circle class="st3" cx="186.3" cy="140" r="3.5"/>
<circle class="st3" cx="230.7" cy="93.2" r="3.5"/>
<circle class="st3" cx="269.5" cy="152.7" r="3.5"/>
<circle class="st3" cx="313.1" cy="174.7" r="3.5"/>
<circle class="st3" cx="355.5" cy="136.2" r="3.5"/>
<circle class="st3" cx="398" cy="113" r="3.5"/>
<circle class="st3" cx="430.4" cy="74" r="3.5"/>
<circle class="st3" cx="478" cy="101.2" r="3.5"/>
<circle class="st3" cx="518.3" cy="132" r="3.5"/>
<circle class="st3" cx="559.5" cy="54" r="3.5"/>
<circle class="st3" cx="652" cy="113.2" r="3.5"/>
<circle class="st3" cx="602.9" cy="77.9" r="3.5"/>
<circle class="st3" cx="686.3" cy="74" r="3.5"/>
</svg>
